<svg width="54.05" height="41.283" viewBox="0 0 54.05 41.283" xmlns="http://www.w3.org/2000/svg"><g id="svgGroup" stroke-linecap="round" fill-rule="evenodd" font-size="9pt" stroke="#000000" stroke-width="0.25mm" fill="#000000" style="stroke:#000000;stroke-width:0.25mm;fill:#000000"><path d="M 29.35 38.58 L 18.4 34.38 A 16.46 16.46 0 0 1 8.638 39.989 A 13.996 13.996 0 0 1 6.65 40.13 Q 4.45 40.13 2.4 38.98 Q 0 37.68 0 35.63 Q 0 33.13 2.55 31.88 Q 4.5 30.93 7.3 30.93 Q 9.9 30.93 14.7 32.43 Q 15.3 31.63 16.2 30.13 Q 17.1 28.63 18.35 26.48 A 59.451 59.451 0 0 0 20.457 22.374 A 5.687 5.687 0 0 0 21.05 20.58 L 20.9 20.205 Q 20.75 19.83 20.5 19.13 Q 20 17.78 20 16.78 Q 20 15.38 20.55 15.38 Q 21.3 15.38 22.1 16.93 Q 22.75 15.33 23.175 12.38 Q 23.6 9.43 23.8 5.13 Q 19.85 4.53 17 4.53 Q 14.2 4.53 12.4 5.03 Q 7.5 6.48 7.5 11.08 A 9.004 9.004 0 0 0 11.223 17.925 A 19.09 19.09 0 0 0 12.45 18.88 Q 12.7 18.98 12.7 19.13 Q 12.7 19.28 12.5 19.28 Q 12.4 19.28 12.2 19.18 A 14.701 14.701 0 0 1 6.739 14.31 A 7.928 7.928 0 0 1 5.55 10.13 Q 5.55 7.08 8 5.38 Q 10 3.93 13.25 3.53 Q 14.55 3.38 16.05 3.38 Q 17.65 3.38 19.6 3.555 Q 21.55 3.73 23.85 4.08 Q 23.9 3.58 23.9 3.105 L 23.9 2.13 Q 23.9 1.93 23.85 1.78 L 23.85 1.43 Q 23.85 1.13 23.95 1.13 L 24.1 1.23 Q 24.45 2.23 24.45 4.13 Q 25.9 4.33 27.925 4.705 Q 29.95 5.08 32.45 5.58 A 16.103 16.103 0 0 1 37.692 0.927 A 7.576 7.576 0 0 1 41.1 0.08 Q 44.95 0.08 44.95 3.28 Q 44.95 3.88 44.7 3.88 Q 44.5 3.88 44.5 3.38 Q 44.5 2.28 43.5 1.58 Q 42.65 1.08 41.4 1.08 A 7.073 7.073 0 0 0 36.373 3.807 A 19.822 19.822 0 0 0 34.65 5.98 A 153.02 153.02 0 0 0 41.795 7.26 A 81.527 81.527 0 0 0 42.625 7.38 A 41.082 41.082 0 0 0 47.376 7.828 A 14.713 14.713 0 0 0 47.6 7.83 Q 49.7 7.83 51.15 7.33 Q 53.35 6.58 53.35 5.03 Q 53.35 4.58 53.15 4.255 Q 52.95 3.93 52.95 3.83 Q 52.95 3.68 53.1 3.68 Q 53.5 3.68 53.775 4.555 Q 54.05 5.43 54.05 5.93 A 3.638 3.638 0 0 1 50.11 9.419 A 14.243 14.243 0 0 1 48.25 9.53 A 30.635 30.635 0 0 1 43.94 9.103 Q 41.191 8.682 37.207 7.847 A 260.541 260.541 0 0 1 33.9 7.13 A 48.501 48.501 0 0 0 32.377 9.914 A 190.912 190.912 0 0 0 31.625 11.38 A 474.4 474.4 0 0 0 28.639 17.389 A 966.244 966.244 0 0 0 27.4 19.93 A 16.439 16.439 0 0 1 31.929 19.263 A 44.075 44.075 0 0 1 33.7 19.23 Q 39.6 19.23 43.05 20.43 Q 43.35 20.48 43.35 20.63 Q 43.35 20.83 43.1 20.83 Q 42.5 20.83 41.2 20.68 Q 39.95 20.53 39.3 20.53 Q 37.25 20.53 35.325 20.68 Q 33.4 20.83 31.65 21.18 A 12.744 12.744 0 0 0 27.252 22.633 A 2.443 2.443 0 0 0 25.9 24.68 Q 25.9 25.08 26.2 25.68 L 26.2 25.78 Q 25.65 25.78 25.1 24.48 Q 21.95 30.23 19 33.73 L 29.5 36.83 Q 32.7 37.78 35.375 38.205 Q 38.05 38.63 40.2 38.63 Q 42.9 38.63 45 37.78 Q 47.7 36.58 47.7 34.18 Q 47.7 32.33 46.15 29.83 Q 44.6 27.23 44.6 27.28 Q 44.6 27.23 44.65 27.23 Q 44.85 27.23 45.25 27.58 Q 48.5 30.28 48.5 34.03 Q 48.5 37.33 45.95 39.38 Q 43.6 41.28 40.25 41.28 A 21.219 21.219 0 0 1 34.956 40.426 A 60.376 60.376 0 0 1 29.35 38.58 Z M 15.35 32.68 L 16.4 33.03 Q 17.55 31.78 19.075 29.38 Q 20.6 26.98 22.4 23.38 L 26.7 14.83 Q 27.95 12.33 29.2 10.305 Q 30.45 8.28 31.65 6.63 Q 29.5 6.13 27.7 5.78 Q 25.9 5.43 24.45 5.23 Q 24.3 10.93 22.9 16.53 Q 23.6 16.13 23.95 16.13 Q 24.35 16.13 24.35 16.78 Q 24.35 18.23 21.6 20.83 Q 20.65 23.33 19.075 26.305 Q 17.5 29.28 15.35 32.68 Z M 16.05 33.63 L 14.9 33.23 Q 14.75 33.43 14.5 33.68 L 13.9 34.28 Q 11.85 36.33 9.95 37.33 Q 9.9 37.38 9.8 37.38 Q 9.75 37.38 9.75 37.28 Q 9.75 37.08 10.15 36.78 L 12.3 35.03 Q 13 34.48 13.425 33.955 Q 13.85 33.43 14.2 32.93 Q 12.3 32.28 10.575 31.98 Q 8.85 31.68 7.4 31.68 Q 5.2 31.68 3.45 32.43 Q 1.25 33.43 1.25 35.43 Q 1.25 37.18 2.9 38.18 Q 4.35 39.08 6.15 39.08 Q 8.55 39.08 11.65 37.33 Q 13.1 36.48 14.225 35.555 Q 15.35 34.63 16.05 33.63 Z"/></g></svg>
