<svg width="256" height="256" xmlns="http://www.w3.org/2000/svg">
  <rect x="0" y="0" width="256" height="256" rx="30" ry="30" fill="#ffffff" />
  <g fill="#000000" stroke-width="0.25mm" stroke="#000000" font-size="9pt" fill-rule="evenodd" stroke-linecap="round" id="svgGroup">
   <path id="svg_2" vector-effect="non-scaling-stroke" d="m89.15179,122.22897l2.18863,-9.70583l-1.36789,0q-23.80137,0 -39.12179,9.96815l-0.54716,-0.78696l9.57526,-7.34495q11.21674,-8.91887 33.37663,-9.96815q4.37726,-19.93629 8.61774,-34.88851q4.24047,-14.95222 7.797,-25.18268q-5.74516,-1.04928 -11.07995,-1.57392q-5.33479,-0.52464 -10.80637,-0.52464q-12.58463,0 -24.89568,3.67247q-15.594,4.72175 -15.594,14.6899q0,3.93479 3.00937,8.39423l2.05184,3.54131q0.68395,1.18044 0.68395,1.44276q0,3.93479 -13.67895,8.91887q-3.55653,-3.41016 -3.55653,-8.39423q0,-15.73918 21.06558,-30.42908q21.33916,-14.95222 37.75389,-14.95222q8.75453,0 20.792,2.6232q4.37726,-9.18119 9.84884,-13.64062q1.09432,-1.04928 2.73579,-2.09856q1.64147,-1.04928 3.83011,-2.88552q-2.73579,4.45943 -5.74516,9.44351q-3.00937,4.98407 -5.74516,10.23047q22.70705,4.98407 39.94253,7.73843q17.23547,2.75436 28.72579,2.75436q24.34853,0 31.73516,-9.44351q2.73579,-3.41016 4.10368,-3.41016q0.82074,0 0.82074,0.78696q0,0.78696 -0.82074,2.36088q-13.67895,22.29717 -44.31979,22.29717q-18.05621,0 -45.96126,-6.29567q-7.66021,14.95222 -14.77326,55.87408q24.62211,2.88552 37.75389,4.32827q13.13179,1.44276 14.77326,1.44276q16.68832,0 27.63147,-5.77103q1.09432,0 1.09432,0.78696q0,4.72175 -12.31105,10.23047q-8.75453,4.19711 -20.792,4.19711q-5.198,0 -17.50905,-1.44276q-12.31105,-1.44276 -32.28232,-4.32827q-7.93379,44.33202 -21.88632,56.1364l-13.67895,11.80438q2.18863,-0.26232 4.37726,-0.39348q2.18863,-0.13116 4.37726,-0.13116q9.02811,0 17.78263,2.09856q24.34853,6.55799 43.77263,9.83699q19.42411,3.279 33.65021,3.279q27.90505,0 37.75389,-11.01742q5.74516,-6.29567 5.74516,-14.16526q0,-4.45943 -2.46221,-7.47611q-2.46221,-3.01668 -2.46221,-3.279q0,-1.83624 1.64147,-1.83624q5.198,0 5.198,10.7551q0,8.65655 -5.74516,16.52614q-15.594,20.46093 -53.89505,20.46093q-8.20737,0 -25.03247,-2.6232q-16.82511,-2.6232 -41.99437,-7.86959q-6.83947,-1.3116 -13.26858,-1.9674q-6.42911,-0.6558 -12.44784,-0.6558q-6.83947,0 -13.95253,0.78696q-2.73579,5.50871 -5.06121,10.23047q-2.32542,4.72175 -5.06121,8.91887q-3.28295,5.24639 -4.65084,5.24639l0,-0.26232q0,-1.57392 2.18863,-5.50871q2.18863,-4.45943 4.65084,-8.78771q2.46221,-4.32827 4.37726,-9.31235q-15.86758,3.14784 -25.57963,11.54206q-9.71205,8.39423 -9.71205,17.57542q0,14.6899 19.97126,14.6899q1.36789,0 3.00937,-0.13116q1.64147,-0.13116 1.64147,0.13116q0,0.52464 -7.93379,2.09856q-0.82074,0.26232 -1.36789,0.78696q-0.54716,0.52464 -1.36789,0.52464q-7.11305,0 -11.90068,-4.59059q-4.78763,-4.59059 -4.78763,-11.4109q0,-7.08263 4.92442,-14.16526q13.67895,-19.41165 37.48032,-26.7566q12.31105,-28.85516 12.31105,-45.3813q0,-17.3131 -14.22611,-17.3131l-1.64147,0q-0.82074,0 -1.64147,0.26232q3.83011,2.09856 3.83011,6.55799q0,9.18119 -8.75453,13.11598q0.27358,-1.04928 0.41037,-2.09856q0.13679,-1.04928 0.13679,-2.09856q0,-9.96815 -10.66958,-9.44351q6.83947,-8.91887 18.87695,-8.91887q17.50905,0 17.50905,19.41165q0,2.88552 -0.41037,6.55799q-0.41037,3.67247 -1.50468,7.60727q2.18863,-6.03335 4.24047,-13.90294q2.05184,-7.86959 4.24047,-18.10005zm-15.32042,54.8248q4.65084,-12.0667 8.89132,-21.37905q4.24047,-9.31235 6.15553,-16.6573l6.29232,-26.23196q5.47158,0 11.21674,0.78696q-4.65084,22.03485 -11.21674,39.4791q-6.56589,17.44426 -15.32042,30.0356l-9.02811,1.57392l3.00937,-7.60727zm34.47095,-72.66254q-2.46221,-0.26232 -4.65084,-0.26232l-4.10368,0l-2.46221,0q4.65084,-18.88701 9.02811,-33.57691q4.37726,-14.6899 8.75453,-25.18268l14.49968,3.14784q-3.28295,2.88552 -6.29232,5.90219q-3.00937,3.01668 -5.198,5.90219q-3.00937,12.0667 -6.29232,22.95297q-3.28295,10.88626 -3.28295,20.85441l0,0.26232z"/>
  </g>
</svg>
