<svg width="76" height="87.6" viewBox="0 0 76 87.6" xmlns="http://www.w3.org/2000/svg" fill="#ffffff">
  <g id="svgGroup" stroke-linecap="round" fill-rule="nonzero" font-size="9pt" stroke="#FFD54F" stroke-width="0.25mm" fill="#000000">
    <path d="M 23.8 41.6 L 24.6 37.9 L 24.1 37.9 Q 15.4 37.9 9.8 41.7 L 9.6 41.4 L 13.1 38.6 Q 17.2 35.2 25.3 34.8 Q 26.9 27.2 28.45 21.5 Q 30 15.8 31.3 11.9 Q 29.2 11.5 27.25 11.3 Q 25.3 11.1 23.3 11.1 Q 18.7 11.1 14.2 12.5 Q 8.5 14.3 8.5 18.1 Q 8.5 19.6 9.6 21.3 L 10.35 22.65 Q 10.6 23.1 10.6 23.2 Q 10.6 24.7 5.6 26.6 Q 4.3 25.3 4.3 23.4 Q 4.3 17.4 12 11.8 Q 19.8 6.1 25.8 6.1 Q 29 6.1 33.4 7.1 Q 35 3.6 37 1.9 Q 37.4 1.5 38 1.1 Q 38.6 0.7 39.4 0 Q 38.4 1.7 37.3 3.6 Q 36.2 5.5 35.2 7.5 Q 43.5 9.4 49.8 10.45 Q 56.1 11.5 60.3 11.5 Q 69.2 11.5 71.9 7.9 Q 72.9 6.6 73.4 6.6 Q 73.7 6.6 73.7 6.9 Q 73.7 7.2 73.4 7.8 Q 68.4 16.3 57.2 16.3 Q 50.6 16.3 40.4 13.9 Q 37.6 19.6 35 35.2 Q 44 36.3 48.8 36.85 Q 53.6 37.4 54.2 37.4 Q 60.3 37.4 64.3 35.2 Q 64.7 35.2 64.7 35.5 Q 64.7 37.3 60.2 39.4 Q 57 41 52.6 41 Q 50.7 41 46.2 40.45 Q 41.7 39.9 34.4 38.8 Q 31.5 55.7 26.4 60.2 L 21.4 64.7 Q 22.2 64.6 23 64.55 Q 23.8 64.5 24.6 64.5 Q 27.9 64.5 31.1 65.3 Q 40 67.8 47.1 69.05 Q 54.2 70.3 59.4 70.3 Q 69.6 70.3 73.2 66.1 Q 75.3 63.7 75.3 60.7 Q 75.3 59 74.4 57.85 Q 73.5 56.7 73.5 56.6 Q 73.5 55.9 74.1 55.9 Q 76 55.9 76 60 Q 76 63.3 73.9 66.3 Q 68.2 74.1 54.2 74.1 Q 51.2 74.1 45.05 73.1 Q 38.9 72.1 29.7 70.1 Q 27.2 69.6 24.85 69.35 Q 22.5 69.1 20.3 69.1 Q 17.8 69.1 15.2 69.4 Q 14.2 71.5 13.35 73.3 Q 12.5 75.1 11.5 76.7 Q 10.3 78.7 9.8 78.7 L 9.8 78.6 Q 9.8 78 10.6 76.5 Q 11.4 74.8 12.3 73.15 Q 13.2 71.5 13.9 69.6 Q 8.1 70.8 4.55 74 Q 1 77.2 1 80.7 Q 1 86.3 8.3 86.3 Q 8.8 86.3 9.4 86.25 Q 10 86.2 10 86.3 Q 10 86.5 7.1 87.1 Q 6.8 87.2 6.6 87.4 Q 6.4 87.6 6.1 87.6 Q 3.5 87.6 1.75 85.85 Q 0 84.1 0 81.5 Q 0 78.8 1.8 76.1 Q 6.8 68.7 15.5 65.9 Q 20 54.9 20 48.6 Q 20 42 14.8 42 L 14.2 42 Q 13.9 42 13.6 42.1 Q 15 42.9 15 44.6 Q 15 48.1 11.8 49.6 Q 11.9 49.2 11.95 48.8 Q 12 48.4 12 48 Q 12 44.2 8.1 44.4 Q 10.6 41 15 41 Q 21.4 41 21.4 48.4 Q 21.4 49.5 21.25 50.9 Q 21.1 52.3 20.7 53.8 Q 21.5 51.5 22.25 48.5 Q 23 45.5 23.8 41.6 Z M 18.2 62.5 L 17.1 65.4 L 20.4 64.8 Q 23.6 60 26 53.35 Q 28.4 46.7 30.1 38.3 Q 28 38 26 38 L 23.7 48 Q 23 50.8 21.45 54.35 Q 19.9 57.9 18.2 62.5 Z M 30.8 34.8 L 30.8 34.7 Q 30.8 30.9 32 26.75 Q 33.2 22.6 34.3 18 Q 35.1 16.9 36.2 15.75 Q 37.3 14.6 38.5 13.5 L 33.2 12.3 Q 31.6 16.3 30 21.9 Q 28.4 27.5 26.7 34.7 L 27.6 34.7 L 29.1 34.7 Q 29.9 34.7 30.8 34.8 Z" vector-effect="non-scaling-stroke"/>
  </g>
</svg>
