<svg width="363" height="363" viewBox="0 0 363 363" xmlns="http://www.w3.org/2000/svg">
  <circle cx="181.5" cy="181.5" r="181.5" fill="white" />

  <g transform="translate(0, 110)">
    <g
      fill="#000000"
      stroke-width="0.5"
      stroke="#000000"
      font-size="9pt"
      fill-rule="nonzero"
      stroke-linecap="round"
      id="svgGroup"
    >
      <path
        id="svg_1"
        d="m180.35238,112.634l-12.8,-6.4l-38.784,-87.04l19.968,-1.792l12.8,6.4l4.352,10.624l28.544,-2.432l7.552,-19.328l19.968,-1.792l12.8,6.4l-38.912,93.952l-15.488,1.408zm39.552,-100.224l-17.152,1.536l-7.424,19.2l-40.064,3.584l-7.424,-17.92l-17.28,1.536l37.76,84.608l13.824,-1.28l37.76,-91.264zm-58.112,39.808l27.008,-2.304l-13.568,33.792l-13.44,-31.488zm21.888,6.912l-7.168,0.64l3.584,8.448l3.584,-9.088zm138.112,67.712l-10.88,-12.16q9.728,-9.984 15.744,-22.4a63.327,63.327 0 0 0 5.854,-23.978a90.201,90.201 0 0 0 0.162,-5.462q0,-16.64 -5.952,-28.096q-5.952,-11.456 -15.936,-19.776l10.88,-14.208l12.8,6.4a76.016,76.016 0 0 1 17.99,19.194a59.202,59.202 0 0 1 3.898,7.174a76.489,76.489 0 0 1 6.326,25.857a108.393,108.393 0 0 1 0.33,8.575q0,13.056 -2.88,24.32q-2.88,11.264 -9.152,21.312q-6.272,10.048 -16.384,19.648l-12.8,-6.4zm-9.088,-12.16l9.088,10.24a87.061,87.061 0 0 0 17.809,-22.517a70.012,70.012 0 0 0 2.927,-6.155a87.408,87.408 0 0 0 6.342,-31.025a113.383,113.383 0 0 0 0.058,-3.663a90.998,90.998 0 0 0 -3.025,-24.302a66.114,66.114 0 0 0 -3.375,-9.426q-6.4,-14.272 -20.736,-25.152l-9.088,12.032q9.344,7.936 15.296,19.52q5.952,11.584 5.952,28.608a74.403,74.403 0 0 1 -3.348,23.149a54.626,54.626 0 0 1 -2.668,6.675q-6.016,12.544 -15.232,22.016zm-270.976,18.048l-12.8,-6.4a76.074,76.074 0 0 1 -17.865,-18.815a58.662,58.662 0 0 1 -4.151,-7.553q-6.656,-14.592 -6.656,-34.304a92.864,92.864 0 0 1 4.739,-30.394a76.666,76.666 0 0 1 1.917,-4.998q6.656,-15.68 21.888,-30.016l12.8,6.4l10.752,12.16q-9.728,10.112 -15.744,22.656q-6.016,12.544 -6.016,29.312a66.407,66.407 0 0 0 2.71,19.832a49.165,49.165 0 0 0 0.042,0.136q2.752,8.704 7.616,15.552q4.864,6.848 11.392,12.48l-10.624,13.952zm-13.056,-8.32l9.088,-11.904q-6.144,-5.248 -10.944,-12.032q-4.8,-6.784 -7.552,-15.68a68.423,68.423 0 0 1 -2.749,-19.699a95.419,95.419 0 0 1 -0.003,-0.717a73.503,73.503 0 0 1 3.633,-23.905a55.648,55.648 0 0 1 2.319,-5.727q5.952,-12.608 15.296,-22.336l-9.088,-10.24a89.138,89.138 0 0 0 -17.556,22.133a70.594,70.594 0 0 0 -3.18,6.603q-6.4,15.296 -6.4,34.752a89.503,89.503 0 0 0 3.164,24.649a65.427,65.427 0 0 0 3.236,8.887q6.4,14.208 20.736,25.216zm58.368,-83.072l-0.64,0q-2.688,0 -6.336,-1.216q-3.648,-1.216 -7.424,-3.264q-3.776,-2.048 -7.104,-4.224q-2.944,-2.048 -4.8,-5.504q-1.856,-3.456 -1.856,-7.68q0,-4.608 2.048,-8.64q2.048,-4.032 5.504,-6.656q3.456,-2.624 7.552,-2.88l0.896,0q3.84,0 9.088,2.176q5.248,2.176 11.264,6.272q3.2,2.048 5.056,5.568q1.856,3.52 1.856,8q0,4.48 -2.048,8.512q-2.048,4.032 -5.504,6.592q-3.456,2.56 -7.552,2.944zm-13.952,-7.68l1.024,0q3.84,-0.384 6.976,-2.752q3.136,-2.368 5.056,-6.08q1.92,-3.712 1.92,-7.936q0,-6.144 -3.776,-10.24q-3.776,-4.096 -9.152,-4.096l-1.024,0q-3.84,0.256 -6.976,2.688q-3.136,2.432 -5.056,6.144q-1.92,3.712 -1.92,8.064q0,6.016 3.776,10.112q3.776,4.096 9.152,4.096zm1.024,-9.472l-0.384,0q-2.176,0 -3.648,-1.6q-1.472,-1.6 -1.472,-4.032q0,-2.56 1.6,-4.544q1.6,-1.984 3.904,-2.112l0.384,0q2.176,0 3.648,1.536q1.472,1.536 1.472,4.096q0,2.56 -1.6,4.48q-1.6,1.92 -3.904,2.176zm204.928,17.152l-0.64,0q-2.688,0 -6.336,-1.216q-3.648,-1.216 -7.424,-3.264q-3.776,-2.048 -7.104,-4.224q-2.944,-2.048 -4.8,-5.504q-1.856,-3.456 -1.856,-7.68q0,-4.608 2.048,-8.64q2.048,-4.032 5.504,-6.656q3.456,-2.624 7.552,-2.88l0.896,0q3.84,0 9.088,2.176q5.248,2.176 11.264,6.272q3.2,2.048 5.056,5.568q1.856,3.52 1.856,8q0,4.48 -2.048,8.512q-2.048,4.032 -5.504,6.592q-3.456,2.56 -7.552,2.944zm-13.952,-7.68l1.024,0q3.84,-0.384 6.976,-2.752q3.136,-2.368 5.056,-6.08q1.92,-3.712 1.92,-7.936q0,-6.144 -3.776,-10.24q-3.776,-4.096 -9.152,-4.096l-1.024,0q-3.84,0.256 -6.976,2.688q-3.136,2.432 -5.056,6.144q-1.92,3.712 -1.92,8.064q0,6.016 3.776,10.112q3.776,4.096 9.152,4.096zm1.024,-9.472l-0.384,0q-2.176,0 -3.648,-1.6q-1.472,-1.6 -1.472,-4.032q0,-2.56 1.6,-4.544q1.6,-1.984 3.904,-2.112l0.384,0q2.176,0 3.648,1.536q1.472,1.536 1.472,4.096q0,2.56 -1.6,4.48q-1.6,1.92 -3.904,2.176z"
      />
    </g>
  </g>
</svg>
